<svg width="169" height="60" viewBox="0 0 169 60" fill="none" xmlns="http://www.w3.org/2000/svg">
<path d="M78.474 32.074V21.688C78.474 21.58 78.402 21.508 78.294 21.508H76.476C76.386 21.508 76.314 21.58 76.314 21.688V33.838C76.314 33.928 76.386 34 76.494 34H82.542C82.632 34 82.704 33.928 82.704 33.838V32.236C82.704 32.128 82.632 32.074 82.524 32.074H78.474ZM85.9086 29.068C86.1246 28.024 86.8986 27.322 88.1406 27.322C89.3826 27.322 90.1566 28.024 90.3726 29.068H85.9086ZM85.9446 30.598H92.3346C92.4606 30.598 92.5146 30.526 92.5146 30.418C92.5326 26.98 90.7866 25.396 88.1406 25.396C85.5306 25.396 83.7666 27.16 83.7666 29.788C83.7666 32.416 85.5666 34.198 88.2486 34.18C89.7066 34.18 90.8766 33.802 91.6686 32.956C91.7406 32.866 91.7226 32.758 91.6506 32.686L90.5886 31.588C90.5526 31.552 90.5166 31.534 90.4626 31.534C90.4086 31.534 90.3546 31.552 90.2826 31.606C89.8866 31.984 89.2206 32.254 88.3566 32.272C87.0606 32.272 86.2146 31.588 85.9446 30.598ZM100.541 26.692C99.9467 25.864 99.0287 25.396 97.8407 25.396C95.3027 25.396 93.5927 27.16 93.5927 29.788C93.5927 32.398 95.3027 34.216 97.8407 34.198C99.0287 34.198 99.9467 33.712 100.541 32.866L100.793 33.82C100.829 33.928 100.883 34 100.991 34H102.377C102.485 34 102.557 33.91 102.557 33.82V25.72C102.557 25.612 102.485 25.54 102.377 25.54H101.009C100.901 25.54 100.847 25.612 100.811 25.72L100.541 26.692ZM95.6267 29.788C95.6267 28.366 96.5627 27.43 97.9667 27.43C99.3887 27.43 100.361 28.366 100.379 29.788C100.361 31.21 99.3887 32.164 97.9667 32.164C96.5807 32.164 95.6267 31.192 95.6267 29.788ZM109.323 27.7C109.359 27.7 109.377 27.718 109.413 27.718C109.503 27.718 109.557 27.664 109.575 27.592L110.007 25.828C110.043 25.72 109.989 25.63 109.881 25.594C109.611 25.522 109.143 25.378 108.585 25.378C107.721 25.378 106.983 25.756 106.443 26.296L106.263 25.738C106.245 25.648 106.173 25.558 106.029 25.558H104.859C104.751 25.558 104.679 25.63 104.679 25.738V33.82C104.679 33.928 104.751 34 104.859 34H106.551C106.677 34 106.731 33.928 106.731 33.82V28.474C107.037 27.826 107.613 27.448 108.189 27.448C108.603 27.448 109.089 27.592 109.323 27.7ZM111.201 33.82C111.201 33.928 111.273 34 111.381 34H113.073C113.163 34 113.253 33.928 113.253 33.82V29.896C113.307 28.69 113.883 27.412 115.269 27.412C116.259 27.412 116.961 28.078 116.961 29.5V33.82C116.961 33.928 117.033 34 117.141 34H118.833C118.941 34 119.013 33.928 119.013 33.82V29.122C119.013 26.728 117.699 25.342 115.791 25.342C114.549 25.342 113.667 25.864 113.127 26.71L112.929 25.738C112.911 25.63 112.839 25.558 112.713 25.558H111.381C111.273 25.558 111.201 25.63 111.201 25.738V33.82ZM125.849 33.784C125.849 33.928 125.939 34 126.065 34H127.829C127.937 34 128.009 33.928 128.009 33.82V25.72L131.213 32.002C131.249 32.074 131.321 32.128 131.411 32.128H133.067C133.157 32.128 133.247 32.074 133.283 31.984L136.505 25.648V33.82C136.505 33.928 136.577 34 136.685 34H138.485C138.593 34 138.665 33.928 138.665 33.82V21.688C138.665 21.58 138.593 21.508 138.485 21.508H136.505C136.397 21.508 136.325 21.544 136.289 21.634L132.239 29.95L128.117 21.652C128.081 21.562 127.991 21.508 127.901 21.508H126.137C125.975 21.508 125.867 21.616 125.867 21.778L125.849 33.784ZM140.544 29.752C140.544 32.38 142.308 34.18 144.936 34.18C147.564 34.18 149.346 32.38 149.346 29.752C149.346 27.124 147.564 25.342 144.936 25.342C142.308 25.342 140.544 27.124 140.544 29.752ZM142.596 29.77C142.596 28.33 143.532 27.394 144.936 27.394C146.358 27.394 147.294 28.33 147.294 29.77C147.294 31.174 146.358 32.146 144.936 32.146C143.532 32.146 142.596 31.174 142.596 29.77ZM155.589 27.7C155.625 27.7 155.643 27.718 155.679 27.718C155.769 27.718 155.823 27.664 155.841 27.592L156.273 25.828C156.309 25.72 156.255 25.63 156.147 25.594C155.877 25.522 155.409 25.378 154.851 25.378C153.987 25.378 153.249 25.756 152.709 26.296L152.529 25.738C152.511 25.648 152.439 25.558 152.295 25.558H151.125C151.017 25.558 150.945 25.63 150.945 25.738V33.82C150.945 33.928 151.017 34 151.125 34H152.817C152.943 34 152.997 33.928 152.997 33.82V28.474C153.303 27.826 153.879 27.448 154.455 27.448C154.869 27.448 155.355 27.592 155.589 27.7ZM159.086 29.068C159.302 28.024 160.076 27.322 161.318 27.322C162.56 27.322 163.334 28.024 163.55 29.068H159.086ZM159.122 30.598H165.512C165.638 30.598 165.692 30.526 165.692 30.418C165.71 26.98 163.964 25.396 161.318 25.396C158.708 25.396 156.944 27.16 156.944 29.788C156.944 32.416 158.744 34.198 161.426 34.18C162.884 34.18 164.054 33.802 164.846 32.956C164.918 32.866 164.9 32.758 164.828 32.686L163.766 31.588C163.73 31.552 163.694 31.534 163.64 31.534C163.586 31.534 163.532 31.552 163.46 31.606C163.064 31.984 162.398 32.254 161.534 32.272C160.238 32.272 159.392 31.588 159.122 30.598Z" fill="black"/>
<path d="M30 10C41.0232 10 50 18.9725 50 30.0116C50 41.0275 41.0232 50 30 50C18.9768 50 10 41.0275 10 30.0116C10 18.9725 18.9768 10 30 10ZM27.722 22.0598C27.2973 22.0598 26.8919 22.1563 26.5058 22.3493C26.0232 22.6194 25.6371 23.0439 25.4247 23.5456C25.2896 23.8929 25.0772 24.9349 25.0772 24.9542C24.8649 26.0926 24.749 27.945 24.749 29.9904C24.749 31.9411 24.8649 33.7144 25.0386 34.8722C25.0579 34.8915 25.2703 36.1843 25.5019 36.6281C25.9266 37.4385 26.7568 37.9402 27.6448 37.9402H27.722C28.3012 37.9209 29.5174 37.4192 29.5174 37.3999C31.5637 36.5509 35.5985 33.9074 37.2201 32.1515L37.3359 32.0357C37.5483 31.8234 37.8185 31.4954 37.8764 31.4182C38.1853 31.013 38.3398 30.5113 38.3398 30.0116C38.3398 29.4501 38.166 28.9291 37.8378 28.5046C37.7606 28.4274 37.471 28.0994 37.2008 27.8292C35.6178 26.1312 31.4865 23.3526 29.3243 22.5036C28.9961 22.3705 28.166 22.0791 27.722 22.0598Z" fill="#5F6064"/>
<path fill-rule="evenodd" clip-rule="evenodd" d="M30 0C13.4315 0 0 13.4315 0 30C0 46.5685 13.4315 60 30 60V56C15.6406 56 4 44.3594 4 30C4 15.6406 15.6406 4 30 4V0Z" fill="#FF6600"/>
</svg>
