<svg width="370" height="62" viewBox="0 0 370 62" fill="none" xmlns="http://www.w3.org/2000/svg">
<path d="M1.5 1H368.5" stroke="#EBEAED" stroke-width="2" stroke-linecap="square"/>
<path d="M124.5 1.5V60.5" stroke="#EBEAED" stroke-width="2" stroke-linecap="square"/>
<path d="M247.5 1.5V60.5" stroke="#EBEAED" stroke-width="2" stroke-linecap="square"/>
<path d="M75.1726 23.9518C74.4605 24.2588 73.6871 24.4797 72.8891 24.5657C73.7116 24.0746 74.3378 23.3012 74.6324 22.3804C73.8712 22.8346 73.0119 23.1661 72.1157 23.338C71.3913 22.5646 70.3601 22.0858 69.2183 22.0858C67.0208 22.0858 65.2529 23.8659 65.2529 26.0512C65.2529 26.3581 65.2898 26.665 65.3511 26.9596C62.061 26.7878 59.1268 25.2163 57.1748 22.8101C56.8311 23.3994 56.6346 24.0746 56.6346 24.8112C56.6346 26.1862 57.3344 27.4016 58.4025 28.1137C57.7518 28.0891 57.138 27.905 56.6101 27.6103C56.6101 27.6226 56.6101 27.6471 56.6101 27.6594C56.6101 29.5869 57.9728 31.1829 59.7898 31.5512C59.4583 31.6371 59.1023 31.6862 58.7462 31.6862C58.4884 31.6862 58.2429 31.6617 57.9973 31.6248C58.5007 33.1963 59.9616 34.338 61.7049 34.3748C60.3422 35.4429 58.6357 36.069 56.7819 36.069C56.4505 36.069 56.1436 36.0567 55.8244 36.0199C57.5799 37.1494 59.667 37.8 61.9136 37.8C69.2061 37.8 73.196 31.7599 73.196 26.5177C73.196 26.3458 73.196 26.1739 73.1837 26.0021C73.9572 25.4373 74.6324 24.7375 75.1726 23.9518Z" fill="#151439" fill-opacity="0.4"/>
<path d="M191.39 20.5143H179.604C177.652 20.5143 176.068 22.098 176.068 24.05V35.8358C176.068 37.7878 177.652 39.3715 179.604 39.3715H186.135V32.0668H183.68V29.2186H186.135V27.1192C186.135 24.6884 187.633 23.3625 189.806 23.3625C190.837 23.3625 191.734 23.4362 191.991 23.473V26.0143L190.494 26.0266C189.303 26.0266 189.082 26.5791 189.082 27.4016V29.2186H191.893L191.525 32.0668H189.082V39.3715H191.39C193.342 39.3715 194.926 37.7878 194.926 35.8358V24.05C194.926 22.098 193.342 20.5143 191.39 20.5143Z" fill="#151439" fill-opacity="0.4"/>
<path d="M308.64 37.3581C307.67 37.7632 306.614 37.9965 305.497 37.9965C303.545 37.9965 301.765 37.2967 300.365 36.155C300.365 36.155 300.476 36.2286 300.549 36.29C302.096 32.9262 306.872 31.2565 306.872 31.2565C306.884 31.2565 306.909 31.2442 306.921 31.2442C308.051 34.1907 308.517 36.646 308.64 37.3581ZM306.369 29.9061C306.27 29.9429 306.16 29.9675 306.049 30.0043C306.049 30.0043 301.703 31.4038 299.506 35.3201C298.229 33.896 297.443 32.0054 297.443 29.9429C297.443 29.857 297.443 29.771 297.456 29.6851C297.591 29.6851 301.568 29.7833 305.718 28.5434C305.951 28.9976 306.172 29.4518 306.369 29.9061ZM305.055 27.3034C301.188 28.3224 297.824 28.2855 297.615 28.2855C298.143 25.7934 299.813 23.7186 302.059 22.6628C302.17 22.8101 303.655 24.8235 305.055 27.3034ZM313.452 31.2197C313.084 33.4663 311.807 35.4061 310.003 36.6215C309.917 36.1427 309.487 33.7733 308.431 30.8637C311.034 30.4585 313.28 31.1706 313.452 31.2197ZM303.569 22.1226C303.557 22.1226 303.545 22.1349 303.545 22.1349C303.557 22.1226 303.557 22.1226 303.569 22.1226ZM310.813 23.9027C310.788 23.9396 309.646 25.6829 306.614 26.8123C305.239 24.2833 303.717 22.2822 303.594 22.1226C304.208 21.9753 304.846 21.8893 305.497 21.8893C307.535 21.8893 309.401 22.6505 310.813 23.9027ZM313.551 29.857C313.452 29.8447 310.715 29.2431 307.94 29.5992C307.879 29.4641 307.83 29.3168 307.768 29.1817C307.596 28.7889 307.412 28.396 307.228 28.0155C310.408 26.7141 311.697 24.848 311.721 24.8235C312.851 26.1985 313.526 27.9541 313.551 29.857ZM314.926 29.9429C314.926 24.7375 310.702 20.5143 305.497 20.5143C300.292 20.5143 296.068 24.7375 296.068 29.9429C296.068 35.1483 300.292 39.3715 305.497 39.3715C310.702 39.3715 314.926 35.1483 314.926 29.9429Z" fill="#151439" fill-opacity="0.4"/>
</svg>
